<svg xmlns="http://www.w3.org/2000/svg" viewBox="0 0 100 100" width="100" height="100" role="img" aria-labelledby="ti">
<title id="ti">Ali Rizvi mark, takeoff attitude</title>
<defs><clipPath id="hxi"><path d="M92 50 L71 86.4 L29 86.4 L8 50 L29 13.6 L71 13.6 Z"/></clipPath></defs>
<g clip-path="url(#hxi)"><g transform="translate(0 18)">
<rect x="-80" y="-130" width="260" height="180" fill="#ffffff"/>
<rect x="-80" y="50" width="260" height="180" fill="#000000"/>
<path d="M38 38 H62 M42 26 H58" stroke="#000000" stroke-width="2"/>
<path d="M44 44 H56 M44 32 H56" stroke="#000000" stroke-width="1.2"/>
<path d="M38 62 H62 M42 74 H58" stroke="#ffffff" stroke-width="2"/>
<path d="M44 56 H56 M44 68 H56" stroke="#ffffff" stroke-width="1.2"/>
</g></g>

<path d="M50 15.6 L46 22.6 H54 Z" fill="#000000"/>
<g fill="#000000" stroke="#ffffff" stroke-width="2" paint-order="stroke">
<rect x="27" y="47" width="15" height="6"/>
<rect x="58" y="47" width="15" height="6"/>
<circle cx="50" cy="50" r="3.5"/>
</g>

<path d="M92 50 L71 86.4 L29 86.4 L8 50 L29 13.6 L71 13.6 Z" fill="none" stroke="#ffffff" stroke-width="4" stroke-linejoin="miter"/>
</svg>
